<svg
					class="logoidenautas"
					xmlns="http://www.w3.org/2000/svg"
					xml:space="preserve"
					version="1.1"
					style="
						shape-rendering: geometricPrecision;
						text-rendering: geometricPrecision;
						image-rendering: optimizeQuality;
						fill-rule: evenodd;
						clip-rule: evenodd;
					"
					viewBox="0 0 16013 4063"
					xmlns:xlink="http://www.w3.org/1999/xlink">
					<linearGradient
						id="rainbow"
						x1="0"
						x2="100%"
						y1="0"
						y2="0"
						gradientUnits="userSpaceOnUse">
						<stop stop-color="red" offset="0%" />
						<stop stop-color="orange" offset="20%" />
						<stop stop-color="yellow" offset="40%" />
						<stop stop-color="green" offset="60%" />
						<stop stop-color="blue" offset="80%" />
						<stop stop-color="indigo" offset="100%" />
					</linearGradient>
					<g class="nombre">
						<path
							d="M265 504c-83,0 -147,-22 -194,-67 -47,-44 -71,-105 -71,-183 0,-80 24,-142 71,-187 47,-45 111,-67 194,-67 82,0 147,22 194,67 47,45 70,107 70,187 0,75 -24,136 -72,182 -48,46 -112,68 -192,68zm-223 2057l0 -1764 438 0 0 1764 -438 0z" />
						<path
							d="M2226 92l437 0 0 2469 -437 0 0 -169c-80,70 -169,124 -268,162 -99,38 -201,57 -307,57 -179,0 -335,-40 -469,-120 -134,-80 -237,-191 -309,-332 -72,-141 -107,-300 -107,-476 0,-177 35,-335 107,-477 72,-141 175,-252 309,-333 134,-81 290,-122 469,-122 106,0 208,20 305,59 98,38 188,92 270,160l0 -878zm-519 2099c97,0 184,-22 263,-66 79,-43 141,-104 187,-181 46,-78 69,-166 69,-265 0,-148 -50,-269 -150,-363 -100,-94 -223,-141 -369,-141 -148,0 -269,47 -365,143 -95,95 -143,217 -143,365 0,148 48,270 143,365 96,95 217,143 365,143z" />
						<path
							d="M3873 751c170,0 322,42 457,126 136,83 241,195 316,337 75,141 113,297 113,469 0,56 -5,108 -14,155l-1362 0c35,125 98,222 187,291 89,69 204,104 342,104 85,0 167,-19 245,-56 79,-38 139,-86 179,-145l335 198c-83,122 -189,215 -319,280 -131,65 -281,97 -450,97 -188,0 -355,-40 -501,-120 -146,-80 -258,-190 -337,-332 -79,-141 -118,-299 -118,-476 0,-174 39,-331 118,-473 79,-141 189,-252 330,-333 141,-81 301,-122 479,-122zm477 745c-19,-113 -71,-202 -157,-267 -86,-64 -194,-97 -323,-97 -89,0 -171,17 -245,50 -74,33 -134,77 -178,134 -45,56 -69,116 -71,180l974 0z" />
						<path
							d="M5930 751c104,0 209,22 316,66 107,43 199,121 275,234 77,113 115,265 115,455l0 1055 -438 0 0 -1055c0,-131 -37,-226 -111,-284 -74,-57 -160,-86 -259,-86 -99,0 -183,35 -252,104 -70,69 -104,181 -104,333l0 988 -438 0 0 -1764 438 0 0 148c63,-58 134,-105 211,-141 78,-35 160,-53 247,-53z" />
						<path
							d="M8364 797l438 0 0 1764 -438 0 0 -173c-82,71 -172,126 -270,164 -97,39 -200,59 -308,59 -179,0 -335,-40 -469,-120 -134,-80 -237,-191 -309,-332 -72,-141 -108,-300 -108,-476 0,-177 36,-335 108,-477 72,-141 175,-252 309,-333 134,-81 290,-122 469,-122 108,0 211,20 308,59 98,38 188,93 270,164l0 -177zm-522 1394c97,0 184,-22 263,-66 79,-43 141,-104 187,-181 46,-78 69,-166 69,-265 0,-148 -50,-269 -150,-363 -100,-94 -223,-141 -369,-141 -148,0 -270,47 -365,143 -95,95 -143,217 -143,365 0,148 48,270 143,365 95,95 217,143 365,143z" />
						<path
							d="M10294 797l437 0 0 1764 -437 0 0 -148c-63,59 -134,106 -212,141 -77,35 -160,53 -247,53 -103,0 -208,-22 -315,-65 -107,-44 -199,-122 -275,-235 -77,-113 -115,-264 -115,-455l0 -1055 437 0 0 1055c0,132 37,226 111,284 75,58 161,86 260,86 99,0 183,-34 252,-104 69,-69 104,-180 104,-333l0 -988z" />
						<path
							d="M11709 1958c0,80 18,135 56,166 38,30 98,46 180,46 49,0 104,-4 162,-11l0 402c-110,12 -202,18 -275,18 -188,0 -329,-43 -421,-129 -93,-86 -140,-240 -140,-464l0 -797 -331 0 0 -392 331 0 0 -434 438 -148 0 582 391 0 0 392 -391 0 0 769z" />
						<path
							d="M13787 797l437 0 0 1764 -437 0 0 -173c-83,71 -173,126 -270,164 -98,39 -201,59 -309,59 -179,0 -335,-40 -469,-120 -134,-80 -237,-191 -309,-332 -72,-141 -108,-300 -108,-476 0,-177 36,-335 108,-477 72,-141 175,-252 309,-333 134,-81 290,-122 469,-122 108,0 211,20 309,59 97,38 187,93 270,164l0 -177zm-523 1394c97,0 184,-22 263,-66 79,-43 141,-104 187,-181 46,-78 69,-166 69,-265 0,-148 -50,-269 -150,-363 -100,-94 -223,-141 -369,-141 -148,0 -269,47 -365,143 -95,95 -143,217 -143,365 0,148 48,270 143,365 96,95 217,143 365,143z" />
						<path
							d="M14986 1291c0,50 28,87 83,111 55,25 143,50 263,76 136,28 250,60 342,95 92,36 171,92 238,168 67,76 101,179 101,309 0,115 -35,215 -105,299 -69,85 -161,149 -276,193 -116,43 -242,65 -378,65 -186,0 -345,-35 -478,-106 -133,-70 -231,-172 -295,-303l360 -187c64,162 201,243 413,243 92,0 171,-17 236,-53 66,-35 99,-86 99,-151 0,-57 -30,-99 -90,-126 -60,-27 -157,-57 -291,-90 -139,-32 -251,-65 -338,-98 -87,-33 -163,-84 -226,-154 -64,-69 -95,-161 -95,-277 0,-113 31,-211 95,-294 63,-84 149,-148 257,-193 108,-44 227,-67 357,-67 152,0 289,32 411,96 121,63 214,154 280,271l-356 180c-61,-131 -173,-197 -335,-197 -83,0 -149,17 -198,51 -49,34 -74,80 -74,139z" />
					</g>
					<g class="slogan">
						<polygon
							points="889,3912 1099,3161 1193,3161 943,4046 840,4046 616,3311 394,4046 291,4046 41,3161 134,3161 344,3912 568,3161 666,3161 " />
						<polygon
							points="2093,3643 2093,3960 2500,3960 2500,4046 2003,4046 2003,3161 2495,3161 2495,3245 2093,3245 2093,3557 2464,3557 2464,3643 " />
						<path
							d="M3868 3582c37,22 67,52 89,90 22,39 33,80 33,125 0,45 -11,86 -33,124 -22,38 -52,68 -89,91 -37,23 -77,34 -121,34l-371 0 0 -885 352 0c41,0 80,10 115,31 35,21 63,50 84,86 21,36 31,74 31,115 0,37 -8,71 -24,105 -16,33 -38,61 -66,84zm-402 -334l0 301 262 0c25,0 49,-7 71,-21 23,-15 40,-34 53,-57 13,-23 20,-48 20,-75 0,-41 -14,-76 -42,-105 -29,-29 -63,-43 -102,-43l-262 0zm281 711c28,0 54,-8 78,-22 24,-15 43,-35 57,-60 13,-25 20,-51 20,-80 0,-29 -7,-56 -20,-81 -14,-25 -33,-45 -57,-60 -24,-15 -50,-22 -78,-22l-281 0 0 325 281 0z" />
						<polygon
							points="6920,3161 6920,3245 6518,3245 6518,3567 6904,3567 6904,3651 6518,3651 6518,4046 6428,4046 6428,3161 " />
						<path
							d="M8408 4046l-96 0 -81 -214 -413 0 -81 214 -99 0 337 -885 97 0 336 885zm-384 -759l-173 459 347 0 -174 -459z" />
						<path
							d="M9139 3605c0,-83 20,-159 61,-229 41,-70 97,-126 167,-167 70,-40 146,-61 228,-61 85,0 162,21 233,64 71,43 126,99 166,170l-80 43c-32,-56 -76,-102 -133,-135 -56,-34 -118,-51 -186,-51 -66,0 -127,17 -183,49 -56,33 -100,78 -133,133 -33,56 -49,117 -49,184 0,66 16,128 49,184 33,56 77,100 133,133 56,33 117,49 183,49 68,0 130,-17 187,-51 57,-34 101,-79 133,-136l80 43c-39,71 -95,128 -167,171 -71,43 -149,65 -233,65 -82,0 -158,-21 -228,-62 -70,-42 -126,-97 -167,-167 -41,-70 -61,-147 -61,-229z" />
						<polygon
							points="11391,3161 11391,3245 11119,3245 11119,4046 11028,4046 11028,3245 10756,3245 10756,3161 " />
						<path
							d="M12579 4063c-82,0 -159,-21 -229,-62 -70,-42 -125,-97 -166,-167 -41,-70 -61,-147 -61,-229 0,-83 20,-159 61,-229 41,-70 96,-126 166,-167 70,-40 147,-61 229,-61 83,0 159,21 229,61 70,41 126,97 167,167 41,70 61,146 61,229 0,82 -20,159 -61,229 -41,70 -97,125 -167,167 -70,41 -146,62 -229,62zm0 -92c67,0 128,-16 184,-49 56,-33 101,-77 134,-133 33,-56 49,-118 49,-184 0,-67 -16,-128 -49,-184 -33,-55 -78,-100 -134,-133 -56,-32 -117,-49 -184,-49 -66,0 -127,17 -183,49 -56,33 -100,78 -133,133 -33,56 -49,117 -49,184 0,66 16,128 49,184 33,56 77,100 133,133 56,33 117,49 183,49z" />
						<path
							d="M14533 4046l-104 0 -193 -338 -10 0 -246 0 0 338 -90 0 0 -885 336 0c49,0 95,12 137,36 42,25 75,58 99,100 25,41 37,87 37,137 0,57 -16,109 -47,155 -31,46 -72,79 -124,99l205 358zm-553 -798l0 373 246 0c33,0 64,-8 93,-25 28,-17 50,-40 67,-68 17,-29 26,-60 26,-94 0,-34 -9,-65 -26,-93 -17,-28 -39,-51 -67,-68 -29,-17 -60,-25 -93,-25l-246 0z" />
						<polygon
							points="15868,3161 15972,3161 15648,3701 15648,4046 15557,4046 15557,3701 15234,3161 15337,3161 15603,3602 " />
					</g>
				</svg>