<?xml version="1.0" standalone="no"?>
<!DOCTYPE svg PUBLIC "-//W3C//DTD SVG 20010904//EN"
 "http://www.w3.org/TR/2001/REC-SVG-20010904/DTD/svg10.dtd">
<svg version="1.0" xmlns="http://www.w3.org/2000/svg"
 width="900.000000pt" height="900.000000pt" viewBox="0 0 900.000000 900.000000"
 preserveAspectRatio="xMidYMid meet">
<metadata>
Created by potrace 1.14, written by Peter Selinger 2001-2017
</metadata>
<g transform="translate(0.000000,900.000000) scale(0.100000,-0.100000)"
fill="#000000" stroke="none">
<path d="M0 4500 l0 -4500 4500 0 4500 0 0 4500 0 4500 -4500 0 -4500 0 0
-4500z m1835 3495 c318 -88 485 -315 485 -660 0 -137 -21 -241 -70 -341 -70
-145 -188 -239 -381 -306 -92 -32 -97 -33 -269 -32 -158 0 -183 2 -257 25
-110 34 -181 79 -269 171 -117 123 -169 244 -181 430 -19 293 115 544 352 658
74 36 154 61 230 74 63 10 300 -3 360 -19z m6265 -3570 l0 -3335 -595 0 -595
0 -2 224 -3 224 -80 -64 c-262 -211 -605 -382 -910 -452 -185 -43 -317 -56
-570 -56 -342 0 -556 32 -839 125 -495 163 -920 510 -1177 962 -272 480 -397
1030 -361 1591 28 426 117 761 294 1109 116 227 245 402 430 583 298 292 599
465 982 565 487 127 991 112 1435 -43 202 -70 510 -243 719 -404 l82 -64 0
1185 0 1185 595 0 595 0 0 -3335z m-5910 -950 l0 -2385 -595 0 -595 0 0 2378
c0 1308 3 2382 7 2385 3 4 271 7 595 7 l588 0 0 -2385z"/>
<path d="M5300 4830 c-312 -43 -566 -166 -774 -374 -188 -189 -309 -415 -363
-684 -26 -127 -26 -492 1 -612 59 -271 161 -469 334 -652 202 -212 446 -342
737 -393 348 -60 735 3 1022 167 166 95 305 231 430 420 163 247 223 456 223
778 0 388 -109 675 -353 927 -206 214 -436 342 -722 403 -113 24 -420 36 -535
20z"/>
</g>
</svg>
